<svg xmlns="http://www.w3.org/2000/svg" width="84" height="84" viewBox="0 0 84 84">
  <g id="Group_110368" data-name="Group 110368" transform="translate(-319 -2232)">
    <circle id="Ellipse_396" data-name="Ellipse 396" cx="42" cy="42" r="42" transform="translate(319 2232)" fill="#f7f7fc"/>
    <g id="image" transform="translate(344 2257)">
      <g id="Group_110337" data-name="Group 110337" transform="translate(0 14.144)">
        <g id="Group_110336" data-name="Group 110336">
          <path id="Path_199114" data-name="Path 199114" d="M26.453,207.174l-.02-.024a.667.667,0,0,0-.99-.051l-10.1,10.114a1.031,1.031,0,0,1-1.388.065l-4.25-3.529a.666.666,0,0,0-.859.005l-.01.008L0,221.1v2.186a4.477,4.477,0,0,0,4.472,4.472H30.528A4.477,4.477,0,0,0,35,223.287v-6.226Z" transform="translate(0 -206.903)" fill="#c1bcbc"/>
        </g>
      </g>
      <g id="Group_110339" data-name="Group 110339" transform="translate(8.109 6.368)">
        <g id="Group_110338" data-name="Group 110338">
          <path id="Path_199115" data-name="Path 199115" d="M121.526,93.152a2.909,2.909,0,1,0,2.909,2.909A2.912,2.912,0,0,0,121.526,93.152Z" transform="translate(-118.617 -93.152)" fill="#c1bcbc"/>
        </g>
      </g>
      <g id="Group_110341" data-name="Group 110341">
        <g id="Group_110340" data-name="Group 110340">
          <path id="Path_199116" data-name="Path 199116" d="M30.528,0H4.472A4.478,4.478,0,0,0,0,4.472V25.662L7.516,19.42a2.724,2.724,0,0,1,3.507-.017l3.527,2.929,9.434-9.449a2.729,2.729,0,0,1,4.038.194L35,21.149V4.472A4.477,4.477,0,0,0,30.528,0ZM11.018,14.248a4.971,4.971,0,1,1,4.971-4.971A4.976,4.976,0,0,1,11.018,14.248Z" fill="#c1bcbc"/>
        </g>
      </g>
    </g>
  </g>
</svg>
